<?xml version="1.0" encoding="UTF-8"?>
<svg version="1.1" xmlns="http://www.w3.org/2000/svg" width="1792" height="576">
<path d="M0 0 C591.36 0 1182.72 0 1792 0 C1792 190.08 1792 380.16 1792 576 C1200.64 576 609.28 576 0 576 C0 385.92 0 195.84 0 0 Z " fill="#FDFDFD" transform="translate(0,0)"/>
<path d="M0 0 C0.67790588 -0.00233643 1.35581177 -0.00467285 2.05426025 -0.00708008 C12.60166659 -0.02085976 22.66909176 0.72053873 32.9375 3.25 C32.9375 3.91 32.9375 4.57 32.9375 5.25 C34.154375 5.311875 35.37125 5.37375 36.625 5.4375 C45.00859566 6.35424818 52.79888156 9.90369829 59.9375 14.25 C60.9275 14.58 61.9175 14.91 62.9375 15.25 C62.9375 15.91 62.9375 16.57 62.9375 17.25 C64.2575 17.58 65.5775 17.91 66.9375 18.25 C66.9375 18.91 66.9375 19.57 66.9375 20.25 C68.01644531 20.60964844 68.01644531 20.60964844 69.1171875 20.9765625 C72.3511417 22.43676897 74.45592703 24.22567748 77.0625 26.625 C78.33480469 27.78128906 78.33480469 27.78128906 79.6328125 28.9609375 C81.65517122 30.96958531 83.38550769 32.86349379 84.9375 35.25 C84.81413315 39.07437234 82.43926516 41.52080165 79.9375 44.25 C79.2775 44.25 78.6175 44.25 77.9375 44.25 C77.9375 44.91 77.9375 45.57 77.9375 46.25 C77.2775 46.25 76.6175 46.25 75.9375 46.25 C75.6075 47.24 75.2775 48.23 74.9375 49.25 C74.2775 49.25 73.6175 49.25 72.9375 49.25 C72.6075 50.24 72.2775 51.23 71.9375 52.25 C71.2775 52.25 70.6175 52.25 69.9375 52.25 C69.9375 52.91 69.9375 53.57 69.9375 54.25 C68.29447047 55.93997323 66.62278688 57.60216394 64.9375 59.25 C63.22550793 61.21647738 61.58379473 63.22740933 59.9375 65.25 C56.08417033 62.40401286 52.25581702 59.5653071 48.625 56.4375 C46.07664376 54.09992437 46.07664376 54.09992437 42.9375 53.25 C42.9375 52.59 42.9375 51.93 42.9375 51.25 C42.03 50.96125 41.1225 50.6725 40.1875 50.375 C33.30959302 47.99418605 33.30959302 47.99418605 31.9375 45.25 C21.65325898 40.76233119 11.45464524 39.83668427 0.3125 39.8125 C-0.91847412 39.80863281 -2.14944824 39.80476563 -3.41772461 39.80078125 C-13.25673068 39.92505526 -20.95611437 41.7037024 -30.0625 45.25 C-31.0525 45.25 -32.0425 45.25 -33.0625 45.25 C-33.0625 45.91 -33.0625 46.57 -33.0625 47.25 C-34.0215625 47.683125 -34.0215625 47.683125 -35 48.125 C-37.21456079 49.07823451 -37.21456079 49.07823451 -38.0625 51.25 C-41.65403789 53.41847571 -45.27926796 55.43404862 -49.0625 57.25 C-49.0625 57.91 -49.0625 58.57 -49.0625 59.25 C-49.7225 59.25 -50.3825 59.25 -51.0625 59.25 C-51.4646875 60.0853125 -51.4646875 60.0853125 -51.875 60.9375 C-53.17149496 63.46225334 -54.48726323 65.88714484 -56.0625 68.25 C-56.7225 68.25 -57.3825 68.25 -58.0625 68.25 C-58.330625 69.219375 -58.59875 70.18875 -58.875 71.1875 C-59.266875 72.198125 -59.65875 73.20875 -60.0625 74.25 C-61.0525 74.58 -62.0425 74.91 -63.0625 75.25 C-64.09566488 78.04172239 -64.09566488 78.04172239 -64.75 81.3125 C-65.12705078 82.96958984 -65.12705078 82.96958984 -65.51171875 84.66015625 C-65.69347656 85.51480469 -65.87523437 86.36945313 -66.0625 87.25 C-66.7225 87.25 -67.3825 87.25 -68.0625 87.25 C-71.33399575 115.23297256 -72.53842618 140.88011359 -56.0625 165.25 C-54.37995566 167.13981792 -54.37995566 167.13981792 -52.6875 168.6875 C-49.9706853 171.33962864 -49.28155351 172.5260903 -49.0625 176.25 C-48.32 176.3325 -47.5775 176.415 -46.8125 176.5 C-44.0625 177.25 -44.0625 177.25 -42.375 179 C-37.42278393 183.8183724 -30.55678421 186.19083671 -24.0625 188.25 C-22.5775 189.24 -22.5775 189.24 -21.0625 190.25 C-21.0625 190.91 -21.0625 191.57 -21.0625 192.25 C-16.44013884 192.32508834 -11.81814553 192.37903662 -7.1953125 192.41479492 C-5.62819217 192.42972752 -4.06111246 192.45008115 -2.49414062 192.47631836 C11.74125089 192.70841713 24.25147698 191.30215652 36.25 183 C38.9375 181.25 38.9375 181.25 41.9375 181.25 C41.9375 180.59 41.9375 179.93 41.9375 179.25 C43.26728527 178.37514127 44.60272092 177.50826618 45.95703125 176.671875 C49.4564242 174.15949032 52.42203727 171.01181051 55.47265625 167.98046875 C57.9375 166.25 57.9375 166.25 60.29638672 166.36889648 C63.64809484 167.48706201 65.20949593 169.08139819 67.66015625 171.6171875 C68.52833984 172.50277344 69.39652344 173.38835937 70.29101562 174.30078125 C71.18498047 175.23277344 72.07894531 176.16476562 73 177.125 C74.78040992 178.95781251 76.5628827 180.78862397 78.34765625 182.6171875 C79.13277588 183.43300293 79.91789551 184.24881836 80.72680664 185.08935547 C82.83871365 187.28343519 82.83871365 187.28343519 85.22436523 188.78955078 C85.78969971 189.27149902 86.35503418 189.75344727 86.9375 190.25 C86.9375 191.57 86.9375 192.89 86.9375 194.25 C86.380625 194.476875 85.82375 194.70375 85.25 194.9375 C82.94709269 196.2445555 81.37327608 197.72560081 79.5546875 199.62890625 C76.64396077 202.54666372 73.51904034 205.23388295 70.4375 207.96875 C67.89664033 210.22177807 67.89664033 210.22177807 65.60546875 212.77734375 C62.40178045 215.74650143 59.16798836 217.45298238 55.25 219.3125 C54.53811523 219.65756592 53.82623047 220.00263184 53.09277344 220.3581543 C43.91618921 224.76212328 34.93865031 228.18627057 24.9375 230.25 C23.75885376 230.50922241 23.75885376 230.50922241 22.55639648 230.77368164 C13.7921459 232.49538084 5.17161726 232.52267193 -3.72094727 232.45581055 C-6.28346449 232.43725771 -8.84562495 232.43530345 -11.40820312 232.43554688 C-13.03646149 232.43064107 -14.6647174 232.42481689 -16.29296875 232.41796875 C-17.05949265 232.41685593 -17.82601654 232.4157431 -18.61576843 232.41459656 C-23.94635112 232.36614888 -23.94635112 232.36614888 -25.0625 231.25 C-26.90849688 230.85545777 -28.76475822 230.50823134 -30.625 230.1875 C-31.63691406 230.01089844 -32.64882813 229.83429688 -33.69140625 229.65234375 C-34.47386719 229.51957031 -35.25632812 229.38679687 -36.0625 229.25 C-36.0625 228.59 -36.0625 227.93 -36.0625 227.25 C-36.77792969 227.11722656 -37.49335938 226.98445312 -38.23046875 226.84765625 C-41.00438322 226.26226465 -43.66549275 225.51841556 -46.375 224.6875 C-47.69951172 224.28337891 -47.69951172 224.28337891 -49.05078125 223.87109375 C-50.04658203 223.56365234 -50.04658203 223.56365234 -51.0625 223.25 C-51.0625 222.59 -51.0625 221.93 -51.0625 221.25 C-52.0834375 221.0953125 -52.0834375 221.0953125 -53.125 220.9375 C-59.16797968 219.52318561 -63.99436866 216.74137937 -69.0625 213.25 C-70.3816582 212.55570621 -71.70899406 211.87469505 -73.0625 211.25 C-73.0625 210.59 -73.0625 209.93 -73.0625 209.25 C-74.0525 208.92 -75.0425 208.59 -76.0625 208.25 C-78.25 206.3125 -78.25 206.3125 -80.0625 204.25 C-80.0625 203.59 -80.0625 202.93 -80.0625 202.25 C-80.64 202.1675 -81.2175 202.085 -81.8125 202 C-84.74044601 201.024018 -86.11494537 199.61488777 -88.0625 197.25 C-88.0625 196.26 -88.0625 195.27 -88.0625 194.25 C-88.7225 194.25 -89.3825 194.25 -90.0625 194.25 C-90.0625 193.59 -90.0625 192.93 -90.0625 192.25 C-90.7225 192.25 -91.3825 192.25 -92.0625 192.25 C-96.79365118 187.51884882 -99.37478226 182.88369726 -101.88671875 176.703125 C-103.04282797 174.29104331 -104.16911385 173.07686177 -106.0625 171.25 C-106.82848684 169.3516848 -107.58290108 167.44700051 -108.25 165.51171875 C-109.02210453 163.26146491 -109.02210453 163.26146491 -110 161.20703125 C-117.01734923 145.7195222 -117.43979249 129.55881763 -117.4375 112.875 C-117.43931274 112.00235504 -117.44112549 111.12971008 -117.44299316 110.23062134 C-117.44240067 107.70810175 -117.42444707 105.18643753 -117.3984375 102.6640625 C-117.39603058 101.90535355 -117.39362366 101.14664459 -117.3911438 100.36494446 C-117.31363203 95.94990784 -116.6526191 92.36174612 -115.0625 88.25 C-114.66151675 86.63121576 -114.28355643 85.00640888 -113.9375 83.375 C-113.76992188 82.59382813 -113.60234375 81.81265625 -113.4296875 81.0078125 C-113.30851562 80.42773438 -113.18734375 79.84765625 -113.0625 79.25 C-112.4025 79.25 -111.7425 79.25 -111.0625 79.25 C-110.85753906 78.19039063 -110.65257812 77.13078125 -110.44140625 76.0390625 C-110.16942334 74.65101178 -109.89727956 73.26299256 -109.625 71.875 C-109.49029297 71.17632812 -109.35558594 70.47765625 -109.21679688 69.7578125 C-108.17578125 64.4765625 -108.17578125 64.4765625 -107.0625 62.25 C-106.4025 62.25 -105.7425 62.25 -105.0625 62.25 C-104.9490625 61.69441406 -104.835625 61.13882813 -104.71875 60.56640625 C-101.50155062 49.21045842 -92.65667066 38.76371998 -83.59765625 31.5 C-81.86426087 30.13756074 -81.86426087 30.13756074 -79.75 27.875 C-68.28920025 16.68073048 -68.28920025 16.68073048 -60.0625 15.25 C-60.0625 14.59 -60.0625 13.93 -60.0625 13.25 C-53.5625 10.25 -53.5625 10.25 -49.0625 10.25 C-49.0625 9.59 -49.0625 8.93 -49.0625 8.25 C-45.62947896 7.25466467 -42.19043842 6.28185628 -38.75 5.3125 C-37.79287109 5.03470703 -36.83574219 4.75691406 -35.84960938 4.47070312 C-29.95966786 2.82469253 -24.36183019 1.8255354 -18.25317383 1.45874023 C-2.9925318 0.00461687 -2.9925318 0.00461687 0 0 Z " fill="#090C1D" transform="translate(514.0625,155.75)"/>
<path d="M0 0 C15.51 0 31.02 0 47 0 C51 12 51 12 51 16 C51.66 16 52.32 16 53 16 C54.42500059 19.99000166 55.40075776 23.80530429 56 28 C56.66 28 57.32 28 58 28 C58.495 31.96 58.495 31.96 59 36 C59.66 36 60.32 36 61 36 C62.00816056 38.58041096 63.0067111 41.16386944 64 43.75 C64.28617188 44.47960937 64.57234375 45.20921875 64.8671875 45.9609375 C65.27324219 47.02441406 65.27324219 47.02441406 65.6875 48.109375 C65.93886719 48.75874023 66.19023438 49.40810547 66.44921875 50.07714844 C67 52 67 52 67 56 C67.66 56 68.32 56 69 56 C69.8394882 58.10171867 70.67139656 60.20646625 71.5 62.3125 C72.19609375 64.07013672 72.19609375 64.07013672 72.90625 65.86328125 C74 69 74 69 74 72 C74.66 72 75.32 72 76 72 C76.14695312 72.53625 76.29390625 73.0725 76.4453125 73.625 C78.24511313 79.91395851 80.45992126 85.98518053 82.80053711 92.08691406 C84.54160923 96.66232759 86.04204477 101.2384327 87.26171875 105.984375 C87.91437642 108.08004276 87.91437642 108.08004276 89.41845703 109.83691406 C92.11474842 113.5246482 93.51788572 117.7731284 95.1875 122 C95.55552734 122.90234375 95.92355469 123.8046875 96.30273438 124.734375 C96.65013672 125.60578125 96.99753906 126.4771875 97.35546875 127.375 C97.67153076 128.16648437 97.98759277 128.95796875 98.31323242 129.7734375 C99 132 99 132 99 136 C99.66 136 100.32 136 101 136 C101.48066535 137.89545392 101.95946743 139.79138039 102.4375 141.6875 C102.70433594 142.74324219 102.97117187 143.79898438 103.24609375 144.88671875 C103.89897932 147.5828317 104.47941193 150.2757576 105 153 C105.66 153 106.32 153 107 153 C107.33773437 154.07121094 107.67546875 155.14242187 108.0234375 156.24609375 C108.47356249 157.64335675 108.92410496 159.04048531 109.375 160.4375 C109.59671875 161.14455078 109.8184375 161.85160156 110.046875 162.58007812 C110.64102606 164.4062189 111.31549619 166.20577032 112 168 C112.66 168.33 113.32 168.66 114 169 C114.23783203 168.195625 114.23783203 168.195625 114.48046875 167.375 C116.90674094 159.22487022 119.45333183 151.11310098 122 143 C122.66 143 123.32 143 124 143 C124.10183594 142.36707031 124.20367188 141.73414063 124.30859375 141.08203125 C125.25922522 136.84447063 126.66493319 132.79589245 128.0625 128.6875 C128.34416016 127.85154297 128.62582031 127.01558594 128.91601562 126.15429688 C129.60795182 124.10194376 130.30360709 122.05084517 131 120 C131.66 120 132.32 120 133 120 C133.0825 119.236875 133.165 118.47375 133.25 117.6875 C134.60446702 111.02803716 136.71850936 104.64404669 140.5625 99 C143.66619331 94.40193584 144.78878068 89.3569375 146 84 C146.66 84 147.32 84 148 84 C148.0825 83.05125 148.165 82.1025 148.25 81.125 C148.83322465 76.98410502 150.35387265 73.42517745 151.96875 69.58984375 C152.93635919 67.15982522 153.68002833 64.76927229 154.375 62.25 C156.28115009 55.58379913 159.18539592 49.32147324 162 43 C162.66 43 163.32 43 164 43 C164.10570312 42.15179688 164.21140625 41.30359375 164.3203125 40.4296875 C165.06274741 36.68337803 166.3157945 33.60800133 167.875 30.125 C170.08125968 25.13355177 172.1512492 20.13541888 174 15 C174.66 15 175.32 15 176 15 C176.66 12.03 177.32 9.06 178 6 C178.66 6 179.32 6 180 6 C180 4.35 180 2.7 180 1 C194.52 1 209.04 1 224 1 C223.34 4.3 222.68 7.6 222 11 C221.34 11 220.68 11 220 11 C220 12.32 220 13.64 220 15 C219.34 15 218.68 15 218 15 C217.88527344 15.84433594 217.77054688 16.68867188 217.65234375 17.55859375 C216.95381482 21.24364755 215.85322145 24.54269876 214.5625 28.0625 C214.13066406 29.24972656 213.69882812 30.43695313 213.25390625 31.66015625 C212.51262365 33.63460056 211.75582433 35.60352855 210.96484375 37.55859375 C210.29180515 39.26162665 209.67465599 40.98734835 209.1015625 42.7265625 C207.66393212 46.9986698 206.02103688 51.17961333 204.375 55.375 C204.05015625 56.20644531 203.7253125 57.03789062 203.390625 57.89453125 C202.59507268 59.93020924 201.79816631 61.96534584 201 64 C200.34 64 199.68 64 199 64 C198.86722656 64.57234375 198.73445312 65.1446875 198.59765625 65.734375 C198.00619683 67.97650875 197.26711146 70.08579619 196.4375 72.25 C196.03337891 73.30960938 196.03337891 73.30960938 195.62109375 74.390625 C195.31365234 75.18726563 195.31365234 75.18726563 195 76 C194.34 76 193.68 76 193 76 C192.95875 77.051875 192.9175 78.10375 192.875 79.1875 C192.22209061 84.47606608 189.92276852 88.85756324 187.625 93.61328125 C184.28852257 100.56694936 181.37716301 107.66321053 179 115 C178.34 115 177.68 115 177 115 C176.855625 115.763125 176.71125 116.52625 176.5625 117.3125 C176 120 176 120 175 123 C174.34 123 173.68 123 173 123 C172.8453125 124.7015625 172.8453125 124.7015625 172.6875 126.4375 C172.10889499 131.19397351 170.64926303 135.51898346 169 140 C168.34 140 167.68 140 167 140 C166.88785156 140.83789062 166.77570313 141.67578125 166.66015625 142.5390625 C165.93580244 146.33656234 164.77179115 149.74846508 163.4375 153.375 C163.20353516 154.01566406 162.96957031 154.65632812 162.72851562 155.31640625 C162.15700381 156.8793161 161.57915771 158.43990727 161 160 C160.34 160 159.68 160 159 160 C158.9175 160.763125 158.835 161.52625 158.75 162.3125 C157.89416701 166.52034551 156.48025977 170.31770906 154.9375 174.31640625 C154.04430519 176.87317639 153.46258436 179.33532135 153 182 C152.34 182 151.68 182 151 182 C150.01 185.3 149.02 188.6 148 192 C147.34 192 146.68 192 146 192 C145.67 195.3 145.34 198.6 145 202 C144.34 202 143.68 202 143 202 C142.88269531 202.52851563 142.76539063 203.05703125 142.64453125 203.6015625 C141.8375631 206.60446217 140.783042 209.46486058 139.6875 212.375 C139.07455078 214.02628906 139.07455078 214.02628906 138.44921875 215.7109375 C136.85409566 219.331136 135.62593164 222.01206621 133 225 C129.90276779 225.85120312 126.90355629 225.72323434 123.7109375 225.62109375 C122.8113028 225.61497574 121.91166809 225.60885773 120.98477173 225.60255432 C118.11370614 225.5756263 115.24533119 225.50647062 112.375 225.4375 C110.43492336 225.41597596 108.49481585 225.39706531 106.5546875 225.38085938 C92.4256229 225.21281145 92.4256229 225.21281145 90 224 C88.9386624 221.65559688 87.9777575 219.338227 87.0625 216.9375 C86.79381104 216.24793213 86.52512207 215.55836426 86.24829102 214.84790039 C85.49191336 212.90118806 84.74460794 210.95123812 84 209 C83.70867187 208.2471875 83.41734375 207.494375 83.1171875 206.71875 C82.39228991 204.81901837 81.69433244 202.91113286 81 201 C80.57460938 199.85015625 80.14921875 198.7003125 79.7109375 197.515625 C79.24435119 196.23974433 78.77820889 194.9637012 78.3125 193.6875 C77.87550781 192.49511719 77.43851563 191.30273438 76.98828125 190.07421875 C76 187 76 187 76 184 C75.34 184 74.68 184 74 184 C71.48525429 179.05722394 69.15307951 174.11356382 67 169 C66.64550781 168.2884375 66.29101562 167.576875 65.92578125 166.84375 C63.35588229 161.57771142 62.57397351 157.85786424 63 152 C62.34 152 61.68 152 61 152 C60.59007812 150.96359375 60.18015625 149.9271875 59.7578125 148.859375 C59.2136341 147.48954661 58.66935813 146.11975698 58.125 144.75 C57.85558594 144.06808594 57.58617187 143.38617188 57.30859375 142.68359375 C56.22808598 139.96914741 55.15428445 137.29646817 53.8046875 134.703125 C53 133 53 133 53 130 C52.01 130 51.02 130 50 130 C49.89042969 129.43152344 49.78085937 128.86304688 49.66796875 128.27734375 C48.87190234 124.40056506 48.02952469 120.79452065 46.375 117.1875 C45 114 45 114 45 110 C44.34 110 43.68 110 43 110 C42.03722741 107.64756508 41.07971502 105.29320381 40.125 102.9375 C39.72087891 101.95233398 39.72087891 101.95233398 39.30859375 100.94726562 C34.61630382 89.33098691 34.61630382 89.33098691 35 83 C34.34 83 33.68 83 33 83 C33 81.68 33 80.36 33 79 C32.34 79 31.68 79 31 79 C30.32968281 77.0429132 29.66385317 75.08428887 29 73.125 C28.62875 72.03445312 28.2575 70.94390625 27.875 69.8203125 C27 67 27 67 27 65 C26.34 65 25.68 65 25 65 C24.72285156 64.37351562 24.44570313 63.74703125 24.16015625 63.1015625 C23.79792969 62.28429687 23.43570313 61.46703125 23.0625 60.625 C22.70285156 59.81289062 22.34320312 59.00078125 21.97265625 58.1640625 C21.3430097 56.76316215 20.68687358 55.37374716 20 54 C19.960008 52.00039988 19.95653201 49.99952758 20 48 C19.34 48 18.68 48 18 48 C17.76925781 47.34515625 17.53851562 46.6903125 17.30078125 46.015625 C15.09334403 39.8382908 12.70492051 33.7676784 10.1484375 27.7265625 C9.76945313 26.82679688 9.39046875 25.92703125 9 25 C8.62101563 24.12085938 8.24203125 23.24171875 7.8515625 22.3359375 C7 20 7 20 7 17 C6.34 17 5.68 17 5 17 C4.49384702 15.73160474 3.99530901 14.46016898 3.5 13.1875 C3.2215625 12.47980469 2.943125 11.77210938 2.65625 11.04296875 C2 9 2 9 2 6 C1.34 6 0.68 6 0 6 C0 4.02 0 2.04 0 0 Z " fill="#0A0D1E" transform="translate(609,159)"/>
<path d="M0 0 C14.19 0 28.38 0 43 0 C42.03076019 3.87695923 40.69024754 7.43874551 39.1875 11.125 C38.91615234 11.79877686 38.64480469 12.47255371 38.36523438 13.16674805 C37.23325216 15.97552934 36.09202789 18.77946771 34.92578125 21.57421875 C32.37110468 27.75071526 30.26576927 34.05434277 28.19335938 40.40551758 C26.58505924 45.32258265 24.84659595 50.16706935 23 55 C22.01 55 21.02 55 20 55 C19.9175 56.2375 19.835 57.475 19.75 58.75 C19.10443016 64.79137746 17.0672672 70.317419 15 76 C14.34 76 13.68 76 13 76 C12.87753906 76.71542969 12.75507812 77.43085938 12.62890625 78.16796875 C11.98864625 81.05112713 11.06448444 83.58592473 9.9375 86.3125 C9.57527344 87.19550781 9.21304687 88.07851563 8.83984375 88.98828125 C8.56269531 89.65214844 8.28554687 90.31601562 8 91 C7.34 91 6.68 91 6 91 C5.87044922 91.83917969 5.87044922 91.83917969 5.73828125 92.6953125 C4.37641868 100.46667503 1.77758895 107.64256972 -1 115 C-1.66 115 -2.32 115 -3 115 C-3.061875 115.928125 -3.12375 116.85625 -3.1875 117.8125 C-3.81597053 122.37815355 -5.83854901 126.1778151 -7.80078125 130.3046875 C-9.07658841 133.17213682 -9.86579137 135.89484992 -10.54296875 138.9453125 C-11.103467 141.46515935 -11.75021665 143.94918181 -12.4375 146.4375 C-12.66308594 147.28183594 -12.88867188 148.12617188 -13.12109375 148.99609375 C-13.41113281 149.65738281 -13.70117188 150.31867188 -14 151 C-14.99 151.33 -15.98 151.66 -17 152 C-17.68754937 153.81010808 -17.68754937 153.81010808 -17.9765625 156.01171875 C-18.91138998 160.88727775 -20.49852623 165.23002754 -22.375 169.8125 C-25.17216545 176.80796246 -27.73106897 183.81270295 -30 191 C-30.66 191 -31.32 191 -32 191 C-31.9175 191.66 -31.835 192.32 -31.75 193 C-32.04800275 196.57603304 -33.24308465 198.80886063 -34.9140625 201.9375 C-36.46592384 204.88492009 -37.71051554 207.92979892 -39 211 C-39.33 211.66 -39.66 212.32 -40 213 C-40.66 213 -41.32 213 -42 213 C-42.20625 213.556875 -42.4125 214.11375 -42.625 214.6875 C-44.51040088 217.85840149 -47.15359359 219.68729479 -50 222 C-50.66 222.99 -51.32 223.98 -52 225 C-52.66 225 -53.32 225 -54 225 C-54.23460937 225.59683594 -54.46921875 226.19367188 -54.7109375 226.80859375 C-56.31427717 229.53427118 -57.90121408 230.48135492 -60.625 232.0625 C-61.44226562 232.54847656 -62.25953125 233.03445313 -63.1015625 233.53515625 C-71.42911194 237.74382342 -78.29881157 238.50263406 -87.5612793 238.44604492 C-89.66621509 238.43758554 -91.76838142 238.46627369 -93.87304688 238.49804688 C-105.9649339 238.5604087 -116.38460291 235.82806115 -127 230 C-127 229.34 -127 228.68 -127 228 C-127.94875 227.71125 -128.8975 227.4225 -129.875 227.125 C-133 226 -133 226 -135 224 C-135.11491235 219.12580135 -134.12236208 214.38621496 -132 210 C-131.34 210 -130.68 210 -130 210 C-129.855625 209.05125 -129.71125 208.1025 -129.5625 207.125 C-129 204 -129 204 -128 202 C-127.34 202 -126.68 202 -126 202 C-125.566875 200.6078125 -125.566875 200.6078125 -125.125 199.1875 C-124 196 -124 196 -122 193 C-120.125 193.25 -120.125 193.25 -118 194 C-117.690625 194.66 -117.38125 195.32 -117.0625 196 C-116.711875 196.66 -116.36125 197.32 -116 198 C-113.44480079 198.81171228 -113.44480079 198.81171228 -111 199 C-111 199.66 -111 200.32 -111 201 C-110.01 201 -109.02 201 -108 201 C-108 201.66 -108 202.32 -108 203 C-104.49839158 203.00632385 -101.00082108 202.94626353 -97.5 202.875 C-96.51773437 202.87757813 -95.53546875 202.88015625 -94.5234375 202.8828125 C-87.414917 202.69325195 -83.02214193 201.13194161 -78 196 C-77.34 195.01 -76.68 194.02 -76 193 C-75.34 193 -74.68 193 -74 193 C-73.896875 192.319375 -73.79375 191.63875 -73.6875 190.9375 C-73 188 -73 188 -71.4375 184.5625 C-69.97205886 180.93075457 -69.49733776 178.85374383 -70 175 C-70.67869141 173.90171875 -70.67869141 173.90171875 -71.37109375 172.78125 C-73.27467736 169.53100652 -74.34211998 166.20136895 -75.4375 162.625 C-77.14277474 157.29290638 -79.08486421 152.77022221 -82 148 C-86.796004 138.77191643 -92 127.63412649 -92 117 C-92.66 117 -93.32 117 -94 117 C-94.99 113.37 -95.98 109.74 -97 106 C-97.66 106 -98.32 106 -99 106 C-102.35337826 98.96908358 -105.48944556 91.96339761 -108.07421875 84.61328125 C-111.23393063 75.69409455 -115.15647716 67.12676571 -119.13671875 58.55078125 C-121.17726299 54.08282379 -122.64808719 49.73169485 -124 45 C-124.90977722 42.8387452 -125.88639702 40.71374517 -126.86328125 38.58203125 C-128.64897068 34.5258776 -130.18905502 30.37921043 -131.765625 26.23828125 C-132.91033183 23.23523707 -134.06970594 20.23922299 -135.25 17.25 C-135.56453125 16.45078125 -135.8790625 15.6515625 -136.203125 14.828125 C-136.85915805 13.01895783 -136.85915805 13.01895783 -138 12 C-138.04063832 10.33382885 -138.042721 8.66611905 -138 7 C-138.66 7 -139.32 7 -140 7 C-140 5.02 -140 3.04 -140 1 C-125.48 1 -110.96 1 -96 1 C-94 5 -94 5 -94 9 C-93.34 9 -92.68 9 -92 9 C-91.80889648 9.55349121 -91.61779297 10.10698242 -91.42089844 10.67724609 C-90.53307444 13.24402967 -89.64211011 15.8097029 -88.75 18.375 C-88.431521 19.29152344 -88.11304199 20.20804688 -87.78491211 21.15234375 C-85.89594227 26.55186924 -83.93105049 31.88497294 -81.62890625 37.125 C-81 39 -81 39 -81 43 C-80.34 43 -79.68 43 -79 43 C-77.99183944 45.58041096 -76.9932889 48.16386944 -76 50.75 C-75.71382812 51.47960937 -75.42765625 52.20921875 -75.1328125 52.9609375 C-74.72675781 54.02441406 -74.72675781 54.02441406 -74.3125 55.109375 C-74.06113281 55.75874023 -73.80976562 56.40810547 -73.55078125 57.07714844 C-73 59 -73 59 -73 63 C-72.34 63 -71.68 63 -71 63 C-70.80664062 63.65226562 -70.61328125 64.30453125 -70.4140625 64.9765625 C-69.27407476 68.80285798 -68.13793385 72.60797749 -66.8125 76.375 C-66 79 -66 79 -66 83 C-65.34 83 -64.68 83 -64 83 C-63.67386719 84.18078125 -63.34773438 85.3615625 -63.01171875 86.578125 C-62.57076271 88.13554421 -62.12933147 89.69282892 -61.6875 91.25 C-61.47416016 92.02730469 -61.26082031 92.80460937 -61.04101562 93.60546875 C-59.87732509 97.66970137 -58.80821363 100.74715254 -56 104 C-54.11609935 108.46186996 -53.80712593 112.17814818 -54 117 C-53.34 117 -52.68 117 -52 117 C-49 123.625 -49 123.625 -49 127 C-48.01 127 -47.02 127 -46 127 C-45.86335938 126.2884375 -45.72671875 125.576875 -45.5859375 124.84375 C-45.00757533 122.0367656 -44.34935247 119.27279009 -43.625 116.5 C-43.39039063 115.5821875 -43.15578125 114.664375 -42.9140625 113.71875 C-42 111 -42 111 -40.59130859 108.74389648 C-38.82082807 105.69105349 -37.74232899 102.72550342 -36.625 99.37890625 C-36.41439941 98.75652573 -36.20379883 98.1341452 -35.98681641 97.49290466 C-35.31899429 95.51791915 -34.65877637 93.54051953 -34 91.5625 C-33.34070543 89.58824144 -32.6796059 87.61467171 -32.01318359 85.64280701 C-31.40792585 83.85136045 -30.80924098 82.05769712 -30.2109375 80.26391602 C-29.01351552 77.03642924 -27.58093833 74.05468509 -26 71 C-25.46224646 69.61827216 -24.95821518 68.22260267 -24.5 66.8125 C-24.2525 66.05324219 -24.005 65.29398437 -23.75 64.51171875 C-22.65213473 60.8350137 -21.73671992 57.1141511 -20.84375 53.3828125 C-19.93874898 50.82702257 -18.95025442 49.81357891 -17 48 C-16.27802838 45.39388923 -16.27802838 45.39388923 -16 43 C-15.34 43 -14.68 43 -14 43 C-13.91234375 42.08605469 -13.8246875 41.17210937 -13.734375 40.23046875 C-12.94363717 34.72709932 -11.03271576 29.5590587 -9.25 24.3125 C-8.91484375 23.29994141 -8.5796875 22.28738281 -8.234375 21.24414062 C-5.79112032 13.97453248 -2.97336374 7.13607297 0 0 Z " fill="#0A0D1E" transform="translate(1175,204)"/>
<path d="M0 0 C54.12 0 108.24 0 164 0 C164 11.55 164 23.1 164 35 C125.06 35.33 86.12 35.66 46 36 C45.67 56.79 45.34 77.58 45 99 C78.99 99 112.98 99 148 99 C148 110.22 148 121.44 148 133 C113.68 133 79.36 133 44 133 C44 163.03 44 193.06 44 224 C29.48 224 14.96 224 0 224 C0 150.08 0 76.16 0 0 Z " fill="#080B1C" transform="translate(862,160)"/>
<path d="M0 0 C26.91363555 -0.88208058 26.91363555 -0.88208058 34 4 C34.495 5.485 34.495 5.485 35 7 C36.32148827 7.37756808 37.65835921 7.7018576 39 8 C43.04656071 10.07515934 45.87951668 12.71528072 49 16 C49.556875 16.495 50.11375 16.99 50.6875 17.5 C52 19 52 19 52.88671875 21.25 C53.93912755 24.03600639 53.93912755 24.03600639 55.5078125 26.59375 C59.50651352 33.7798214 60.56680143 39.60022939 60.5625 47.75 C60.56459473 48.62462891 60.56668945 49.49925781 60.56884766 50.40039062 C60.41805443 56.40037362 59.16809323 61.42589999 57 67 C56.5875 68.155 56.175 69.31 55.75 70.5 C49.25212989 83.49574022 38.4893371 90.3827163 25 95 C20.58279934 96.16904138 16.16840044 96.21822797 11.625 96.25 C10.89539062 96.270625 10.16578125 96.29125 9.4140625 96.3125 C4.17091195 96.34995108 0.70416596 95.30550708 -4 93 C-5.03125 92.67 -6.0625 92.34 -7.125 92 C-10.0673429 90.97657638 -12.45610066 89.79569365 -15 88 C-15 87.34 -15 86.68 -15 86 C-15.5775 85.71125 -16.155 85.4225 -16.75 85.125 C-17.86375 84.568125 -17.86375 84.568125 -19 84 C-19.639375 83.773125 -20.27875 83.54625 -20.9375 83.3125 C-24.12403164 81.28470714 -26.20548861 78.30219514 -28 75 C-28 74.01 -28 73.02 -28 72 C-28.63550781 71.76925781 -29.27101563 71.53851563 -29.92578125 71.30078125 C-32 70 -32 70 -32.79296875 67.79296875 C-32.98826172 66.50326172 -32.98826172 66.50326172 -33.1875 65.1875 C-33.32542969 64.33542969 -33.46335937 63.48335938 -33.60546875 62.60546875 C-33.73566406 61.74566406 -33.86585937 60.88585937 -34 60 C-34.17917969 59.24460937 -34.35835937 58.48921875 -34.54296875 57.7109375 C-35.17816688 53.9431811 -35.1446408 50.25108864 -35.125 46.4375 C-35.12886719 45.68275391 -35.13273437 44.92800781 -35.13671875 44.15039062 C-35.13045683 40.59675207 -34.95795536 37.41753192 -34 34 C-33.34 34 -32.68 34 -32 34 C-32.165 32.88625 -32.33 31.7725 -32.5 30.625 C-32.53358256 24.3226725 -28.05321925 20.38409429 -24 16 C-23.48050781 15.42378906 -22.96101563 14.84757812 -22.42578125 14.25390625 C-21.125 12.875 -21.125 12.875 -19 11 C-18.34 11 -17.68 11 -17 11 C-17 10.34 -17 9.68 -17 9 C-11.89953735 5.05125472 -6.50991756 2 0 2 C0 1.34 0 0.68 0 0 Z " fill="#15A74D" transform="translate(1323,292)"/>
<path d="M0 0 C0.66985145 -0.00155999 1.33970289 -0.00311998 2.02985287 -0.00472724 C4.29083852 -0.00873917 6.5517579 -0.00554687 8.81274414 -0.00241089 C10.42701253 -0.00376484 12.04128061 -0.00554474 13.6555481 -0.00772095 C18.05211768 -0.01229596 22.4486639 -0.01050544 26.84523392 -0.00734186 C31.43588577 -0.00481861 36.02653557 -0.0071557 40.6171875 -0.00872803 C48.32788453 -0.01054983 56.038572 -0.00814315 63.74926758 -0.00338745 C72.67711751 0.00205519 81.60494462 0.00029254 90.532794 -0.00521386 C98.18372386 -0.0097447 105.83464682 -0.01039568 113.48557758 -0.00777519 C118.06142361 -0.00621225 122.6372589 -0.00601909 127.21310425 -0.00931168 C131.51399688 -0.01218997 135.81485994 -0.01021547 140.11574936 -0.00441742 C141.69886094 -0.0030896 143.28197499 -0.00348431 144.8650856 -0.00568008 C147.01702483 -0.00839073 149.16886777 -0.00501155 151.32080078 0 C153.13155846 0.00056554 153.13155846 0.00056554 154.97889709 0.0011425 C157.66040039 0.12698364 157.66040039 0.12698364 158.66040039 1.12698364 C158.76139527 3.85422643 158.80010568 6.55560887 158.79321289 9.28323364 C158.79416962 10.10070068 158.79512634 10.91816772 158.79611206 11.76040649 C158.79679384 13.49213742 158.79493968 15.22387088 158.79077148 16.95559692 C158.78542318 19.61564846 158.79071651 22.27553114 158.79711914 24.93557739 C158.79645836 26.61396318 158.7951772 28.29234887 158.79321289 29.97073364 C158.79523712 30.77176514 158.79726135 31.57279663 158.79934692 32.39810181 C158.77535118 38.01203285 158.77535118 38.01203285 157.66040039 39.12698364 C156.14221519 39.22276957 154.61957643 39.24886511 153.09837341 39.24723816 C151.61962738 39.24930016 151.61962738 39.24930016 150.11100769 39.25140381 C149.02056656 39.24780853 147.93012543 39.24421326 146.80664062 39.24050903 C145.09466995 39.24072807 145.09466995 39.24072807 143.34811401 39.24095154 C139.55505508 39.24025183 135.76204455 39.23245671 131.96899414 39.22463989 C129.34725471 39.22277592 126.72551493 39.22135192 124.10377502 39.22035217 C117.89538084 39.21723915 111.68700418 39.20902616 105.47861773 39.19900268 C97.71955385 39.18674649 89.96048715 39.18125886 82.20141602 39.17581177 C68.35439714 39.16606073 54.50741653 39.14603043 40.66040039 39.12698364 C40.66040039 58.92698364 40.66040039 78.72698364 40.66040039 99.12698364 C48.01192383 99.11538208 55.36344727 99.10378052 62.93774414 99.09182739 C67.58162523 99.08672079 72.22550287 99.08190703 76.86938477 99.07815552 C84.2482169 99.07216647 91.62703669 99.06506454 99.00585938 99.05154419 C104.95156045 99.04071735 110.89724828 99.03470724 116.84295845 99.0321064 C119.11686982 99.03025178 121.39078043 99.02663047 123.6646862 99.02125359 C126.83767159 99.01404586 130.01060156 99.01299259 133.18359375 99.01345825 C134.1337738 99.00986298 135.08395386 99.0062677 136.06292725 99.00256348 C142.54634823 99.01293148 142.54634823 99.01293148 143.66040039 100.12698364 C143.76135603 102.78154558 143.80011038 105.4095354 143.79321289 108.06448364 C143.79416962 108.85975464 143.79512634 109.65502563 143.79611206 110.47439575 C143.79679382 112.15904825 143.79493982 113.84370335 143.79077148 115.52835083 C143.78542314 118.11597561 143.79071658 120.7034268 143.79711914 123.29104614 C143.79645836 124.92385903 143.79517719 126.5566718 143.79321289 128.18948364 C143.79523712 128.96864136 143.79726135 129.74779907 143.79934692 130.55056763 C143.77535144 136.0120326 143.77535144 136.0120326 142.66040039 137.12698364 C141.30699449 137.22229527 139.94866055 137.24887084 138.59190369 137.24723816 C137.27723366 137.24930016 137.27723366 137.24930016 135.93600464 137.25140381 C134.48268234 137.24601089 134.48268234 137.24601089 133 137.24050903 C131.98548264 137.24065506 130.97096527 137.24080109 129.92570496 137.24095154 C126.55469666 137.24025193 123.18374285 137.23245733 119.81274414 137.22463989 C117.48246796 137.22277588 115.15219139 137.2213519 112.82191467 137.22035217 C106.67502774 137.21652566 100.52816426 137.20669424 94.38128662 137.19564819 C87.0133284 137.18364303 79.64536235 137.17903247 72.27739716 137.17319489 C61.07171523 137.16348256 49.86608482 137.14432692 38.66040039 137.12698364 C38.66040039 166.82698364 38.66040039 196.52698364 38.66040039 227.12698364 C23.48040039 227.12698364 8.30040039 227.12698364 -7.33959961 227.12698364 C-7.36162635 198.35294105 -7.38009769 169.57890481 -7.39066494 140.80485589 C-7.39191571 137.41133661 -7.39321003 134.01781735 -7.39453125 130.6242981 C-7.39479356 129.94868147 -7.39505587 129.27306484 -7.39532613 128.57697498 C-7.39968286 117.62335195 -7.40757042 106.66973415 -7.41675241 95.71611423 C-7.42608888 84.48491664 -7.4315803 73.25372167 -7.4336881 62.02252001 C-7.43499564 55.71067221 -7.43808416 49.39883627 -7.44532967 43.08699226 C-7.45208596 37.15359625 -7.45421737 31.22021705 -7.45270729 25.28681755 C-7.4529838 23.10222151 -7.45499122 20.91762495 -7.45880508 18.73303223 C-7.46373623 15.76435776 -7.46260005 12.79574792 -7.45985413 9.82707214 C-7.46276697 8.95063067 -7.46567981 8.0741892 -7.46868092 7.17118889 C-7.45048991 -0.03960568 -7.09106418 0.00221469 0 0 Z M-6.33959961 2.12698364 C-6.33959961 76.04698364 -6.33959961 149.96698364 -6.33959961 226.12698364 C8.18040039 226.12698364 22.70040039 226.12698364 37.66040039 226.12698364 C37.66040039 196.09698364 37.66040039 166.06698364 37.66040039 135.12698364 C71.98040039 135.12698364 106.30040039 135.12698364 141.66040039 135.12698364 C141.66040039 123.90698364 141.66040039 112.68698364 141.66040039 101.12698364 C107.67040039 101.12698364 73.68040039 101.12698364 38.66040039 101.12698364 C38.99040039 80.33698364 39.32040039 59.54698364 39.66040039 38.12698364 C78.60040039 37.79698364 117.54040039 37.46698364 157.66040039 37.12698364 C157.66040039 25.57698364 157.66040039 14.02698364 157.66040039 2.12698364 C103.54040039 2.12698364 49.42040039 2.12698364 -6.33959961 2.12698364 Z " fill="#757782" transform="translate(868.339599609375,157.87301635742188)"/>
<path d="M0 0 C21.36567134 -0.02332696 42.73134058 -0.04097817 64.09702206 -0.05181217 C74.01675275 -0.05697556 83.93647555 -0.06401907 93.85620117 -0.07543945 C102.49896979 -0.08538498 111.14173268 -0.09185311 119.78450686 -0.09408849 C124.36372463 -0.09539583 128.94292605 -0.09848308 133.5221386 -0.10573006 C137.82711706 -0.11248821 142.13207233 -0.11461738 146.43705559 -0.11310768 C148.02178066 -0.1133841 149.60650646 -0.11539044 151.19122696 -0.11920547 C153.34540411 -0.12413953 155.4994923 -0.12299937 157.65367126 -0.12025452 C158.86214187 -0.12117631 160.07061247 -0.1220981 161.31570339 -0.12304783 C164 0 164 0 165 1 C165.10099488 3.72724279 165.13970529 6.42862523 165.1328125 9.15625 C165.13376923 9.97371704 165.13472595 10.79118408 165.13571167 11.63342285 C165.13639345 13.36515378 165.13453929 15.09688724 165.13037109 16.82861328 C165.12502279 19.48866482 165.13031612 22.1485475 165.13671875 24.80859375 C165.13605797 26.48697954 165.1347768 28.16536523 165.1328125 29.84375 C165.13483673 30.64478149 165.13686096 31.44581299 165.13894653 32.27111816 C165.11495079 37.88504921 165.11495079 37.88504921 164 39 C162.4818148 39.09578593 160.95917604 39.12188147 159.43797302 39.12025452 C157.95922699 39.12231651 157.95922699 39.12231651 156.4506073 39.12442017 C155.36016617 39.12082489 154.26972504 39.11722961 153.14624023 39.11352539 C151.43426956 39.11374443 151.43426956 39.11374443 149.68771362 39.1139679 C145.89465469 39.11326818 142.10164416 39.10547307 138.30859375 39.09765625 C135.68685432 39.09579228 133.06511454 39.09436828 130.44337463 39.09336853 C124.23498045 39.09025551 118.02660379 39.08204252 111.81821734 39.07201904 C104.05915346 39.05976285 96.30008676 39.05427521 88.54101562 39.04882812 C74.69399675 39.03907708 60.84701614 39.01904679 47 39 C47 58.8 47 78.6 47 99 C80.66 99 114.32 99 149 99 C149 99.33 149 99.66 149 100 C114.68 100 80.36 100 45 100 C44.979375 89.790625 44.95875 79.58125 44.9375 69.0625 C44.928396 65.83476807 44.91929199 62.60703613 44.90991211 59.28149414 C44.90699324 56.7410486 44.90444461 54.2006026 44.90234375 51.66015625 C44.89973038 50.99592148 44.897117 50.33168671 44.89442444 49.64732361 C44.88714312 47.69987143 44.8866616 45.75239742 44.88647461 43.80493164 C44.884254 42.70572891 44.88203339 41.60652618 44.87974548 40.47401428 C45 38 45 38 46 37 C47.53085839 36.90418178 49.06613756 36.87811892 50.59999084 36.87974548 C51.59423569 36.87837082 52.58848053 36.87699615 53.612854 36.87557983 C54.71264587 36.87917511 55.81243774 36.88277039 56.94555664 36.88647461 C58.67215767 36.88625557 58.67215767 36.88625557 60.43363953 36.8860321 C64.25916391 36.88673182 68.08464031 36.89452698 71.91015625 36.90234375 C74.55431593 36.90420772 77.19847596 36.90563172 79.84263611 36.90663147 C86.10415417 36.90974451 92.36565486 36.91795752 98.62716526 36.92798096 C105.75401537 36.93914295 112.8808663 36.94465276 120.00772297 36.94967639 C134.67182557 36.96014016 149.33590933 36.9784853 164 37 C163.67 25.45 163.34 13.9 163 2 C82.315 1.505 82.315 1.505 0 1 C0 0.67 0 0.34 0 0 Z " fill="#B8B8BD" transform="translate(862,158)"/>
<path d="M0 0 C1.65 0 3.3 0 5 0 C4.67 0.66 4.34 1.32 4 2 C3.34 2 2.68 2 2 2 C1.67 73.94 1.34 145.88 1 220 C1.99 220.33 2.98 220.66 4 221 C2.68 221.33 1.36 221.66 0 222 C0 148.74 0 75.48 0 0 Z " fill="#00000B" transform="translate(863,161)"/>
<path d="M0 0 C33.33 0 66.66 0 101 0 C100.67 2.31 100.34 4.62 100 7 C99.67 7 99.34 7 99 7 C99 5.35 99 3.7 99 2 C66 2 33 2 -1 2 C-0.67 1.34 -0.34 0.68 0 0 Z " fill="#00020E" transform="translate(909,259)"/>
<path d="M0 0 C15.18 0 30.36 0 46 0 C44 11 44 11 43 14 C42.34 14 41.68 14 41 14 C40.896875 14.763125 40.79375 15.52625 40.6875 16.3125 C39.95635961 19.17059424 39.23048087 20.15742885 37 22 C37.33 20.02 37.66 18.04 38 16 C38.66 16 39.32 16 40 16 C40 14.68 40 13.36 40 12 C40.66 12 41.32 12 42 12 C42.66 8.7 43.32 5.4 44 2 C29.48 2 14.96 2 0 2 C0 3.65 0 5.3 0 7 C-0.66 7 -1.32 7 -2 7 C-2.144375 7.928125 -2.28875 8.85625 -2.4375 9.8125 C-3 13 -3 13 -4 16 C-4.66 16 -5.32 16 -6 16 C-5.01 12.37 -4.02 8.74 -3 5 C-2.34 5 -1.68 5 -1 5 C-0.67 3.35 -0.34 1.7 0 0 Z " fill="#9697A0" transform="translate(789,158)"/>
<path d="M0 0 C0.78384567 0.00045822 1.56769135 0.00091644 2.37528992 0.00138855 C4.0232394 0.00438991 5.67118658 0.01221203 7.3190918 0.0246582 C9.8072343 0.04284461 12.29500119 0.04516782 14.78320312 0.04492188 C37.30007914 0.09195937 37.30007914 0.09195937 44.51171875 3.23046875 C40.96437235 4.43757024 38.38681658 4.00432483 34.7421875 3.3046875 C27.07369558 2.02928718 19.58194088 1.97060904 11.82421875 2.04296875 C10.45507875 2.04443029 9.08593765 2.045085 7.71679688 2.04492188 C1.42935891 1.7203205 1.42935891 1.7203205 -4.48828125 3.23046875 C-5.9658909 3.33793127 -7.44568044 3.41581536 -8.92578125 3.48046875 C-15.51502141 3.99813209 -21.68498834 5.72858844 -28.02514648 7.50292969 C-28.81735596 7.72368164 -29.60956543 7.94443359 -30.42578125 8.171875 C-31.13605469 8.37498291 -31.84632813 8.57809082 -32.578125 8.78735352 C-34.48828125 9.23046875 -34.48828125 9.23046875 -37.48828125 9.23046875 C-37.48828125 9.89046875 -37.48828125 10.55046875 -37.48828125 11.23046875 C-38.80828125 10.90046875 -40.12828125 10.57046875 -41.48828125 10.23046875 C-34.08176888 6.52721256 -26.60453577 4.56791513 -18.57974243 2.73143005 C-16.63131759 2.26472981 -14.69994604 1.72835835 -12.77099609 1.18676758 C-8.4697156 0.11285128 -4.41618386 -0.04325996 0 0 Z " fill="#858690" transform="translate(502.48828125,154.76953125)"/>
<path d="M0 0 C0.99 0.495 0.99 0.495 2 1 C2 1.99 2 2.98 2 4 C2.63550781 4.22558594 3.27101563 4.45117188 3.92578125 4.68359375 C6 6 6 6 6.79296875 8.34765625 C6.98826172 9.69150391 6.98826172 9.69150391 7.1875 11.0625 C7.45274003 14.3327893 7.45274003 14.3327893 9 17 C9.04063832 18.66617115 9.042721 20.33388095 9 22 C9.66 22 10.32 22 11 22 C13.5466871 28.61396893 15.63125844 35.04223041 17 42 C17.66 42 18.32 42 19 42 C19.83919398 44.26882087 20.67151724 46.53977027 21.5 48.8125 C21.73847656 49.45509766 21.97695312 50.09769531 22.22265625 50.75976562 C23.27068746 53.64933739 24 55.90076061 24 59 C24.66 59 25.32 59 26 59 C26.33 61.31 26.66 63.62 27 66 C24.24780006 63.24780006 23.40121696 59.96988033 22.125 56.375 C20.29920229 51.3637562 18.43391525 46.51144802 15.9375 41.7890625 C12.91323312 36.0177532 10.78791346 30.25769712 9 24 C8.09476294 21.84953075 7.12333737 19.73481071 6.15234375 17.61328125 C0 3.66101695 0 3.66101695 0 0 Z " fill="#8E8F95" transform="translate(1042,225)"/>
<path d="M0 0 C0.6875 1.6875 0.6875 1.6875 1 4 C-0.3125 6.75 -0.3125 6.75 -2 9 C-2.66 9 -3.32 9 -4 9 C-4.309375 9.8353125 -4.309375 9.8353125 -4.625 10.6875 C-6.51040088 13.85840149 -9.15359359 15.68729479 -12 18 C-12.66 18.99 -13.32 19.98 -14 21 C-14.66 21 -15.32 21 -16 21 C-16.22816406 21.59167969 -16.45632813 22.18335938 -16.69140625 22.79296875 C-18.35785936 25.60355384 -20.13827939 26.65598619 -22.9375 28.3125 C-23.81277344 28.84488281 -24.68804688 29.37726563 -25.58984375 29.92578125 C-28 31 -28 31 -31 30 C-30.09636719 29.48050781 -29.19273438 28.96101563 -28.26171875 28.42578125 C-27.06994423 27.7219774 -25.87855824 27.01751535 -24.6875 26.3125 C-23.79514648 25.80299805 -23.79514648 25.80299805 -22.88476562 25.28320312 C-18.99671756 22.95906266 -17.11452014 20.94710425 -15 17 C-13.29731102 14.86292423 -11.58283205 12.76593549 -9.8125 10.6875 C-9.11737305 9.86282227 -9.11737305 9.86282227 -8.40820312 9.02148438 C-7.27528137 7.67832972 -6.1380774 6.33878899 -5 5 C-4.34 5.33 -3.68 5.66 -3 6 C-2.67 5.01 -2.34 4.02 -2 3 C-1.34 3 -0.68 3 0 3 C0 2.01 0 1.02 0 0 Z " fill="#494B57" transform="translate(1137,408)"/>
<path d="M0 0 C1 2 1 2 0 7 C-14.19 7 -28.38 7 -43 7 C-43 6.01 -43 5.02 -43 4 C-29.47 4 -15.94 4 -2 4 C-1.34 2.68 -0.68 1.36 0 0 Z " fill="#9B9EA6" transform="translate(744,379)"/>
<path d="M0 0 C14.85 0 29.7 0 45 0 C45 0.66 45 1.32 45 2 C30.81 2 16.62 2 2 2 C2 2.66 2 3.32 2 4 C1.34 4 0.68 4 0 4 C0 2.68 0 1.36 0 0 Z " fill="#91939C" transform="translate(1033,203)"/>
<path d="M0 0 C9.9 0 19.8 0 30 0 C30 0.99 30 1.98 30 3 C20.43 3 10.86 3 1 3 C0.67 2.01 0.34 1.02 0 0 Z " fill="#080912" transform="translate(497,385)"/>
<path d="M0 0 C2.5 1.75 2.5 1.75 5 4 C5 5.32 5 6.64 5 8 C4.01 8.495 4.01 8.495 3 9 C2.608125 9.70125 2.21625 10.4025 1.8125 11.125 C-0.58684499 14.93085757 -3.54591526 18.11188577 -7 21 C-7.66 21 -8.32 21 -9 21 C-9.226875 21.556875 -9.45375 22.11375 -9.6875 22.6875 C-11.35896766 25.63246684 -13.55276352 27.68156544 -16 30 C-16.99 29.67 -17.98 29.34 -19 29 C-17.38405168 26.95880212 -15.7143618 24.95927063 -14 23 C-13.34 23 -12.68 23 -12 23 C-12 22.34 -12 21.68 -12 21 C-10.34997172 19.64613064 -8.6825613 18.31321858 -7 17 C-6.67 16.34 -6.34 15.68 -6 15 C-5.34 15 -4.68 15 -4 15 C-4 14.34 -4 13.68 -4 13 C-3.34 13 -2.68 13 -2 13 C-1.566875 12.071875 -1.566875 12.071875 -1.125 11.125 C0 9 0 9 2 7 C1.73323796 5.01508358 1.73323796 5.01508358 1 3 C0.67 2.01 0.34 1.02 0 0 Z " fill="#B0B3B7" transform="translate(596,187)"/>
<path d="M0 0 C0.90235526 2.99202007 1.04732668 5.33869415 0.6875 8.4375 C0.60886719 9.17871094 0.53023438 9.91992188 0.44921875 10.68359375 C0 13 0 13 -1.01367188 15.16748047 C-2.24195002 18.69482776 -2.26886726 21.95075799 -2.23046875 25.63671875 C-2.23001053 26.35737015 -2.22955231 27.07802155 -2.2290802 27.82051086 C-2.22607153 29.33584247 -2.21822694 30.85117136 -2.20581055 32.36645508 C-2.1874773 34.69037769 -2.1853016 37.013903 -2.18554688 39.33789062 C-2.18063393 40.81250346 -2.17480659 42.28711359 -2.16796875 43.76171875 C-2.16685593 44.45754562 -2.1657431 45.1533725 -2.16459656 45.87028503 C-2.17497067 49.55915304 -2.17497067 49.55915304 -1 53 C-0.93049459 54.54023996 -0.91547643 56.08334988 -0.9375 57.625 C-0.94652344 58.44226563 -0.95554687 59.25953125 -0.96484375 60.1015625 C-0.97644531 60.72804688 -0.98804688 61.35453125 -1 62 C-4.51658888 56.72511669 -4.15951767 51.33098008 -4.16796875 45.19140625 C-4.17129715 44.34706528 -4.17462555 43.5027243 -4.17805481 42.63279724 C-4.1831042 40.85180199 -4.18546375 39.07079733 -4.18530273 37.28979492 C-4.18748977 34.57519871 -4.20566797 31.86100881 -4.22460938 29.14648438 C-4.22754366 27.41145972 -4.22952822 25.67643314 -4.23046875 23.94140625 C-4.23765427 23.13498184 -4.24483978 22.32855743 -4.25224304 21.49769592 C-4.23382012 16.92154391 -3.70128948 13.31622692 -2 9 C-1.59901675 7.38121576 -1.22105643 5.75640888 -0.875 4.125 C-0.70742188 3.34382812 -0.53984375 2.56265625 -0.3671875 1.7578125 C-0.24601562 1.17773438 -0.12484375 0.59765625 0 0 Z " fill="#686776" transform="translate(401,235)"/>
<path d="M0 0 C26.29897808 -0.8619355 26.29897808 -0.8619355 34 4 C34.495 4.99 34.495 4.99 35 6 C33.02 6 31.04 6 29 6 C29 5.34 29 4.68 29 4 C27.80375 4.04125 26.6075 4.0825 25.375 4.125 C22.56556736 4.13480605 20.88003398 3.95734542 18.1875 3 C13.36816339 1.48805126 6.65289569 0.67355216 2 3 C0.00039988 3.039992 -2.00047242 3.04346799 -4 3 C-2.68 2.67 -1.36 2.34 0 2 C0 1.34 0 0.68 0 0 Z " fill="#5EC284" transform="translate(1323,292)"/>
<path d="M0 0 C2.86700341 4.30050512 2.32991816 8.06676536 2.3125 13.125 C2.32861328 14.03765625 2.34472656 14.9503125 2.36132812 15.890625 C2.36578411 22.14682704 1.30994281 27.2047268 -1 33 C-1.6496875 34.794375 -1.6496875 34.794375 -2.3125 36.625 C-4.33712632 40.67425264 -6.91792746 43.71844056 -10 47 C-10 42.9666466 -8.39120082 41.16482462 -6 38 C-5.34 38 -4.68 38 -4 38 C-3.855625 37.030625 -3.71125 36.06125 -3.5625 35.0625 C-3 32 -3 32 -2 31 C-0.03178812 23.97636257 0.25733471 17.12287042 0.125 9.875 C0.11597656 8.91851562 0.10695313 7.96203125 0.09765625 6.9765625 C0.07439827 4.65076475 0.04172213 2.32552706 0 0 Z " fill="#60C283" transform="translate(1381,326)"/>
<path d="M0 0 C8.25 0 16.5 0 25 0 C25.33 0.66 25.66 1.32 26 2 C18.08 2.33 10.16 2.66 2 3 C1.01 5.31 0.02 7.62 -1 10 C-1.33 10 -1.66 10 -2 10 C-2 8.02 -2 6.04 -2 4 C-1.34 4 -0.68 4 0 4 C0 2.68 0 1.36 0 0 Z " fill="#010410" transform="translate(1176,205)"/>
<path d="M0 0 C0.6875 1.625 0.6875 1.625 1 4 C0.0520411 6.02518491 -0.95191959 8.02477154 -2 10 C-2.38499891 11.65549531 -2.72793135 13.3222433 -3 15 C-4.24205807 18.72617422 -6.1110675 20.39291457 -9 23 C-9.66 23 -10.32 23 -11 23 C-10.01 19.535 -10.01 19.535 -9 16 C-8.34 16 -7.68 16 -7 16 C-6.7834375 14.576875 -6.7834375 14.576875 -6.5625 13.125 C-6 10 -6 10 -5 8 C-4.34 8 -3.68 8 -3 8 C-2.690625 7.05125 -2.38125 6.1025 -2.0625 5.125 C-1 2 -1 2 0 0 Z " fill="#3A3F4E" transform="translate(1052,398)"/>
<path d="M0 0 C-1.93558599 0.67220351 -3.87354372 1.33758077 -5.8125 2 C-6.89144531 2.37125 -7.97039062 2.7425 -9.08203125 3.125 C-12 4 -12 4 -15 4 C-15 4.66 -15 5.32 -15 6 C-15.639375 6.28875 -16.27875 6.5775 -16.9375 6.875 C-19.15206079 7.82823451 -19.15206079 7.82823451 -20 10 C-23.59153789 12.16847571 -27.21676796 14.18404862 -31 16 C-31 16.66 -31 17.32 -31 18 C-31.66 17.67 -32.32 17.34 -33 17 C-30.3821703 14.22818031 -27.95169456 11.96841568 -24.75 9.875 C-21.73996108 8.22935878 -21.73996108 8.22935878 -21 5 C-19.35 5 -17.7 5 -16 5 C-16 4.34 -16 3.68 -16 3 C-14.08802961 2.29954544 -12.17019565 1.615081 -10.25 0.9375 C-9.18265625 0.55464844 -8.1153125 0.17179688 -7.015625 -0.22265625 C-4.07719958 -0.98010011 -2.77651052 -1.07151741 0 0 Z " fill="#5F606B" transform="translate(496,197)"/>
<path d="M0 0 C1.04449911 3.13349732 0.93423645 3.98968256 0 7 C-0.66 7 -1.32 7 -2 7 C-2.33 10.3 -2.66 13.6 -3 17 C-3.66 17 -4.32 17 -5 17 C-5.0825 17.845625 -5.165 18.69125 -5.25 19.5625 C-6.15733853 23.72113491 -7.76541273 26.39582699 -10 30 C-11.13643966 26.59068103 -10.86747764 25.99664544 -9.5625 22.8125 C-9.27503906 22.09707031 -8.98757813 21.38164062 -8.69140625 20.64453125 C-8.46324219 20.10183594 -8.23507812 19.55914062 -8 19 C-7.34 19 -6.68 19 -6 19 C-5.9175 18.236875 -5.835 17.47375 -5.75 16.6875 C-4.58331715 10.9513093 -2.62284399 5.24568799 0 0 Z " fill="#7A7D89" transform="translate(748,260)"/>
<path d="M0 0 C0 3 0 3 -1.4375 4.5 C-1.953125 4.995 -2.46875 5.49 -3 6 C-3.33 6.99 -3.66 7.98 -4 9 C-4.66 9 -5.32 9 -6 9 C-6.268125 9.969375 -6.53625 10.93875 -6.8125 11.9375 C-7.204375 12.948125 -7.59625 13.95875 -8 15 C-8.99 15.33 -9.98 15.66 -11 16 C-11.61970139 10.91844856 -10.33460402 8.40301118 -7.484375 4.41796875 C-5.70092149 2.71430132 -4.37425806 2.51758826 -2 2 C-1.34 1.34 -0.68 0.68 0 0 Z " fill="#51525D" transform="translate(462,215)"/>
<path d="M0 0 C2.75954686 1.37977343 3.09712469 3.34003494 4.203125 6.09375 C5.07072224 8.25026406 5.07072224 8.25026406 6.6875 11.1875 C8 14 8 14 8 18 C8.66 18 9.32 18 10 18 C10.33 20.31 10.66 22.62 11 25 C8.29187344 23.64593672 8.21860354 22.37499944 7.1875 19.5625 C5.42220631 14.91944453 3.31435094 10.59340806 0.953125 6.2265625 C0 4 0 4 0 0 Z " fill="#84848D" transform="translate(672,315)"/>
<path d="M0 0 C0.66 0.33 1.32 0.66 2 1 C-1.625 4 -1.625 4 -5 4 C-5.226875 4.61875 -5.45375 5.2375 -5.6875 5.875 C-7.38416443 8.6219805 -9.05251711 8.86635273 -12 10 C-12.33 10.99 -12.66 11.98 -13 13 C-14.32 12.67 -15.64 12.34 -17 12 C-15.71034824 10.62437146 -14.37310707 9.29233607 -13 8 C-12.34 8 -11.68 8 -11 8 C-11 7.34 -11 6.68 -11 6 C-9.35546875 4.74609375 -9.35546875 4.74609375 -7.1875 3.4375 C-6.47980469 3.00308594 -5.77210937 2.56867188 -5.04296875 2.12109375 C-3 1 -3 1 0 0 Z " fill="#55C27F" transform="translate(1317,295)"/>
<path d="M0 0 C1.36732013 3.69176436 0.46632841 5.4635609 -1 9 C-1.16798262 11.70886941 -1.16798262 11.70886941 -1 14 C-1.99 14 -2.98 14 -4 14 C-4.103125 14.515625 -4.20625 15.03125 -4.3125 15.5625 C-5.24263866 18.86026435 -6.61395512 21.86633332 -8 25 C-9 23 -9 23 -8.51171875 20.90625 C-8.10373047 19.71515625 -8.10373047 19.71515625 -7.6875 18.5 C-7.29111328 17.30890625 -7.29111328 17.30890625 -6.88671875 16.09375 C-6 14 -6 14 -4 12 C-3.35232207 9.42938689 -3.35232207 9.42938689 -3 7 C-2.34 7 -1.68 7 -1 7 C-0.67 4.69 -0.34 2.38 0 0 Z " fill="#424556" transform="translate(1162,240)"/>
<path d="M0 0 C1.13643966 3.40931897 0.86747764 4.00335456 -0.4375 7.1875 C-0.72496094 7.90292969 -1.01242187 8.61835938 -1.30859375 9.35546875 C-1.53675781 9.89816406 -1.76492188 10.44085938 -2 11 C-2.66 11 -3.32 11 -4 11 C-4.33 12.98 -4.66 14.96 -5 17 C-5.33 17 -5.66 17 -6 17 C-6.33 14.69 -6.66 12.38 -7 10 C-6.34 9.67 -5.68 9.34 -5 9 C-4.34786708 6.97536745 -4.34786708 6.97536745 -4 5 C-3.34 5 -2.68 5 -2 5 C-2 3.68 -2 2.36 -2 1 C-1.34 0.67 -0.68 0.34 0 0 Z " fill="#1D1E2A" transform="translate(772,308)"/>
<path d="M0 0 C0.33 0.66 0.66 1.32 1 2 C0.22265625 3.7265625 0.22265625 3.7265625 -0.9375 5.625 C-1.618125 6.73875 -2.29875 7.8525 -3 9 C-3.99 9 -4.98 9 -6 9 C-6.2475 9.53625 -6.495 10.0725 -6.75 10.625 C-8.29696975 13.56424252 -10.13014369 16.25754408 -12 19 C-12.33 18.34 -12.66 17.68 -13 17 C-11.39933082 14.72662933 -9.79464807 12.45628343 -8.1875 10.1875 C-7.73568359 9.54490234 -7.28386719 8.90230469 -6.81835938 8.24023438 C-6.37685547 7.61826172 -5.93535156 6.99628906 -5.48046875 6.35546875 C-5.07723389 5.78465576 -4.67399902 5.21384277 -4.25854492 4.62573242 C-2.9528538 2.93909864 -1.53783772 1.47530811 0 0 Z " fill="#767886" transform="translate(426,191)"/>
<path d="M0 0 C1.54053595 4.67365297 -0.03058794 7.6913736 -2 12 C-2.9601817 13.68991979 -3.95355934 15.36209288 -5 17 C-5.68096422 18.32608822 -6.35330586 19.65686601 -7 21 C-8 19 -8 19 -7.109375 16.171875 C-6.66078125 15.04265625 -6.2121875 13.9134375 -5.75 12.75 C-5.09257813 11.07164062 -5.09257813 11.07164062 -4.421875 9.359375 C-3.0698246 6.16497021 -1.58810818 3.08279823 0 0 Z " fill="#9EA1A6" transform="translate(1214,214)"/>
<path d="M0 0 C2.29520192 7.75500042 -0.53937827 15.58718359 -3 23 C-3.33 23 -3.66 23 -4 23 C-4.1825981 17.70465507 -3.84181601 14.01383247 -2 9 C-1.27166602 6.01284645 -0.62866448 3.00956398 0 0 Z " fill="#8C8D96" transform="translate(401,235)"/>
<path d="M0 0 C1.09285489 2.76856571 1.02445058 3.92592609 0.07421875 6.8046875 C-0.38339844 7.81789063 -0.84101562 8.83109375 -1.3125 9.875 C-3.09665715 13.87273893 -4.67304613 17.82601365 -6 22 C-7.08335233 18.74994301 -6.9100037 17.72604262 -6.125 14.5 C-5.94195313 13.7265625 -5.75890625 12.953125 -5.5703125 12.15625 C-5.11089933 10.41929061 -4.56816269 8.70448806 -4 7 C-3.34 7 -2.68 7 -2 7 C-1.855625 6.401875 -1.71125 5.80375 -1.5625 5.1875 C-1.1127561 3.43849596 -0.57107659 1.71322977 0 0 Z " fill="#343740" transform="translate(1153,367)"/>
<path d="M0 0 C2 2 2 2 2 5 C2.66 5 3.32 5 4 5 C4.33 6.98 4.66 8.96 5 11 C5.66 11 6.32 11 7 11 C7 11.99 7 12.98 7 14 C7.66 14.33 8.32 14.66 9 15 C8.67 16.65 8.34 18.3 8 20 C4.96047287 15.4407093 3 11.52837581 3 6 C2.34 6 1.68 6 1 6 C0.67 4.02 0.34 2.04 0 0 Z " fill="#6C6B77" transform="translate(651,263)"/>
<path d="M0 0 C0.33 1.32 0.66 2.64 1 4 C0.34 4 -0.32 4 -1 4 C-1.103125 4.515625 -1.20625 5.03125 -1.3125 5.5625 C-2.24263866 8.86026435 -3.61395512 11.86633332 -5 15 C-5.33 15 -5.66 15 -6 15 C-6.33 13.02 -6.66 11.04 -7 9 C-6.01 8.67 -5.02 8.34 -4 8 C-4 7.01 -4 6.02 -4 5 C-3.34 5 -2.68 5 -2 5 C-2 4.01 -2 3.02 -2 2 C-1.34 2 -0.68 2 0 2 C0 1.34 0 0.68 0 0 Z " fill="#5D6068" transform="translate(753,357)"/>
<path d="M0 0 C0.33 0 0.66 0 1 0 C0.88512252 1.58409994 0.75765492 3.16728963 0.625 4.75 C0.55539062 5.63171875 0.48578125 6.5134375 0.4140625 7.421875 C0.00149945 9.99066382 -0.71160957 11.75841015 -2 14 C-2.66 14 -3.32 14 -4 14 C-4 15.32 -4 16.64 -4 18 C-4.66 18 -5.32 18 -6 18 C-5.67 16.02 -5.34 14.04 -5 12 C-4.34 12 -3.68 12 -3 12 C-2.87625 11.319375 -2.7525 10.63875 -2.625 9.9375 C-1.90899123 6.5722588 -0.97054875 3.29986575 0 0 Z " fill="#555867" transform="translate(736,290)"/>
<path d="M0 0 C7.59 0 15.18 0 23 0 C23 0.33 23 0.66 23 1 C22.15236084 1.03758423 22.15236084 1.03758423 21.28759766 1.07592773 C18.73316258 1.19179956 16.1791045 1.31456537 13.625 1.4375 C12.73554687 1.47681641 11.84609375 1.51613281 10.9296875 1.55664062 C10.07890625 1.59853516 9.228125 1.64042969 8.3515625 1.68359375 C7.56604004 1.72025146 6.78051758 1.75690918 5.97119141 1.79467773 C3.92476504 1.890891 3.92476504 1.890891 2 3 C0.00039988 3.039992 -2.00047242 3.04346799 -4 3 C-2.68 2.67 -1.36 2.34 0 2 C0 1.34 0 0.68 0 0 Z " fill="#94DAAF" transform="translate(1323,292)"/>
<path d="M0 0 C0.66 0.33 1.32 0.66 2 1 C1.25 2.9375 1.25 2.9375 0 5 C-2.0625 5.625 -2.0625 5.625 -4 6 C-4.33 6.66 -4.66 7.32 -5 8 C-6.98 8 -8.96 8 -11 8 C-8.16569547 4.7457985 -6.31392226 3.4793247 -2 3 C-2 2.34 -2 1.68 -2 1 C-1.34 0.67 -0.68 0.34 0 0 Z " fill="#4F5162" transform="translate(558,334)"/>
<path d="M0 0 C1.1875 1.625 1.1875 1.625 2 4 C0.625 7.25 0.625 7.25 -1 10 C-1.66 10 -2.32 10 -3 10 C-3.33 11.65 -3.66 13.3 -4 15 C-4.66 15 -5.32 15 -6 15 C-4.66666667 11 -3.33333333 7 -2 3 C-1.34 3 -0.68 3 0 3 C0 2.01 0 1.02 0 0 Z " fill="#505363" transform="translate(773,199)"/>
<path d="M0 0 C2.58492789 0.08716617 5.16647502 0.19405119 7.75 0.3125 C8.84441406 0.34633789 8.84441406 0.34633789 9.9609375 0.38085938 C14.20570619 0.59309781 16.913858 0.97070799 20 4 C13.84765625 4.09765625 13.84765625 4.09765625 12 4 C11.67 3.67 11.34 3.34 11 3 C9.15400312 2.60545777 7.29774178 2.25823134 5.4375 1.9375 C3.91962891 1.67259766 3.91962891 1.67259766 2.37109375 1.40234375 C1.58863281 1.26957031 0.80617188 1.13679688 0 1 C0 0.67 0 0.34 0 0 Z " fill="#61636D" transform="translate(478,384)"/>
<path d="M0 0 C0.66 0.33 1.32 0.66 2 1 C1.49202991 5.3177458 0.80317221 9.03302114 -1 13 C-1.66 13 -2.32 13 -3 13 C-3.33 11.68 -3.66 10.36 -4 9 C-3.01 8.67 -2.02 8.34 -1 8 C-1.020625 7.05125 -1.04125 6.1025 -1.0625 5.125 C-1 2 -1 2 0 0 Z " fill="#2F313A" transform="translate(1175,306)"/>
<path d="M0 0 C1.82716043 2.74074065 2.80930644 4.95711645 4 8 C4.34675781 8.7321875 4.69351562 9.464375 5.05078125 10.21875 C5.42589844 11.0128125 5.80101562 11.806875 6.1875 12.625 C6.55230469 13.38039063 6.91710938 14.13578125 7.29296875 14.9140625 C8 17 8 17 7 20 C4 13.375 4 13.375 4 10 C3.01 10 2.02 10 1 10 C0.67 6.7 0.34 3.4 0 0 Z " fill="#575865" transform="translate(1113,297)"/>
<path d="M0 0 C0 0.66 0 1.32 0 2 C-0.66 2 -1.32 2 -2 2 C-2 2.66 -2 3.32 -2 4 C-2.66 4 -3.32 4 -4 4 C-4.33 4.99 -4.66 5.98 -5 7 C-5.66 7 -6.32 7 -7 7 C-7.33 7.66 -7.66 8.32 -8 9 C-8.33 8.01 -8.66 7.02 -9 6 C-4.85714286 0 -4.85714286 0 0 0 Z " fill="#161A2A" transform="translate(594,198)"/>
<path d="M0 0 C0.66 0 1.32 0 2 0 C2 0.66 2 1.32 2 2 C2.66 2.33 3.32 2.66 4 3 C-0.625 7 -0.625 7 -4 7 C-2.79618552 4.50638429 -1.54571278 2.31856917 0 0 Z " fill="#333949" transform="translate(1099,397)"/>
<path d="M0 0 C0.99 0.495 0.99 0.495 2 1 C2 1.99 2 2.98 2 4 C3.32 4.66 4.64 5.32 6 6 C6 8.31 6 10.62 6 13 C3.12744934 10.57804552 2.29161081 8.40257297 1.3125 4.8125 C1.06113281 3.91144531 0.80976562 3.01039063 0.55078125 2.08203125 C0.36902344 1.39496094 0.18726563 0.70789063 0 0 Z " fill="#5E5F6B" transform="translate(1042,225)"/>
<path d="M0 0 C1.13643966 3.40931897 0.86747764 4.00335456 -0.4375 7.1875 C-0.72496094 7.90292969 -1.01242187 8.61835938 -1.30859375 9.35546875 C-1.53675781 9.89816406 -1.76492188 10.44085938 -2 11 C-2.66 11 -3.32 11 -4 11 C-4.33 12.32 -4.66 13.64 -5 15 C-6 13 -6 13 -5.0625 9.875 C-4.711875 8.92625 -4.36125 7.9775 -4 7 C-3.34 7 -2.68 7 -2 7 C-2 5.35 -2 3.7 -2 2 C-1.34 2 -0.68 2 0 2 C0 1.34 0 0.68 0 0 Z " fill="#686D73" transform="translate(812,212)"/>
<path d="M0 0 C-0.66 1.32 -1.32 2.64 -2 4 C-2.66 4 -3.32 4 -4 4 C-4 3.34 -4 2.68 -4 2 C-7.3 2 -10.6 2 -14 2 C-14 1.67 -14 1.34 -14 1 C-9.32798795 -0.20568053 -4.78503708 -0.09382426 0 0 Z " fill="#040619" transform="translate(1217,205)"/>
<path d="M0 0 C0.93423645 3.01031744 1.04449911 3.86650268 0 7 C-0.66 7 -1.32 7 -2 7 C-2.103125 7.763125 -2.20625 8.52625 -2.3125 9.3125 C-3.04364039 12.17059424 -3.76951913 13.15742885 -6 15 C-5.67 13.02 -5.34 11.04 -5 9 C-4.34 9 -3.68 9 -3 9 C-3 7.68 -3 6.36 -3 5 C-2.34 5 -1.68 5 -1 5 C-0.67 3.35 -0.34 1.7 0 0 Z " fill="#B0B3B4" transform="translate(832,165)"/>
<path d="M0 0 C0.75 1.5625 0.75 1.5625 1 4 C-0.13084437 6.50286409 -1.52139516 8.67007722 -3 11 C-3.66 11 -4.32 11 -5 11 C-5.33 12.32 -5.66 13.64 -6 15 C-6.33 14.34 -6.66 13.68 -7 13 C-6.0625 10.375 -6.0625 10.375 -5 8 C-4.34 8 -3.68 8 -3 8 C-2.690625 7.05125 -2.38125 6.1025 -2.0625 5.125 C-1 2 -1 2 0 0 Z " fill="#707482" transform="translate(1052,398)"/>
<path d="M0 0 C2.4375 0.375 2.4375 0.375 5 1 C5.33 1.66 5.66 2.32 6 3 C3.69 3 1.38 3 -1 3 C-1 3.99 -1 4.98 -1 6 C-2.65 6.33 -4.3 6.66 -6 7 C-4.02 4.69 -2.04 2.38 0 0 Z " fill="#4B4F5D" transform="translate(572,322)"/>
<path d="M0 0 C0.66 0 1.32 0 2 0 C1.57620166 2.10696905 1.1354597 4.21053527 0.6875 6.3125 C0.44386719 7.48425781 0.20023438 8.65601563 -0.05078125 9.86328125 C-0.96393655 12.88082736 -1.55874874 14.10580785 -4 16 C-3.39891424 10.34979382 -1.92471317 5.33835539 0 0 Z " fill="#A3A4AC" transform="translate(727,310)"/>
<path d="M0 0 C1.43088528 2.86177057 0.59991697 4.93375773 0 8 C-0.66 8 -1.32 8 -2 8 C-2.33 9.98 -2.66 11.96 -3 14 C-3.66 14 -4.32 14 -5 14 C-4.54857225 12.22739369 -4.08859477 10.4569632 -3.625 8.6875 C-3.36976562 7.70136719 -3.11453125 6.71523438 -2.8515625 5.69921875 C-2 3 -2 3 0 0 Z " fill="#555666" transform="translate(1147,280)"/>
<path d="M0 0 C0.66 0.33 1.32 0.66 2 1 C-0.31 3.31 -2.62 5.62 -5 8 C-5.99 7.67 -6.98 7.34 -8 7 C-3.375 1.125 -3.375 1.125 0 0 Z " fill="#B9BABE" transform="translate(585,209)"/>
<path d="M0 0 C1.40907283 2.81814566 0.50872691 4.17277204 -0.4375 7.125 C-0.72496094 8.03507813 -1.01242187 8.94515625 -1.30859375 9.8828125 C-1.53675781 10.58148438 -1.76492188 11.28015625 -2 12 C-2.66 12 -3.32 12 -4 12 C-3.67 9.03 -3.34 6.06 -3 3 C-2.34 3 -1.68 3 -1 3 C-0.67 2.01 -0.34 1.02 0 0 Z " fill="#565962" transform="translate(450,231)"/>
<path d="M0 0 C0.93423645 3.01031744 1.04449911 3.86650268 0 7 C-0.66 7 -1.32 7 -2 7 C-2.28875 7.61875 -2.5775 8.2375 -2.875 8.875 C-4 11 -4 11 -6 13 C-5.67 11.35 -5.34 9.7 -5 8 C-4.34 8 -3.68 8 -3 8 C-2.87625 7.4225 -2.7525 6.845 -2.625 6.25 C-1.99351176 3.97664233 -1.11141809 2.0746471 0 0 Z " fill="#6E707E" transform="translate(412,210)"/>
<path d="M0 0 C1.62463842 -0.05395478 3.24978541 -0.09277195 4.875 -0.125 C5.77992188 -0.14820313 6.68484375 -0.17140625 7.6171875 -0.1953125 C10 0 10 0 12 2 C7.31034294 3.11658501 4.46236469 2.80619523 0 1 C0 0.67 0 0.34 0 0 Z " fill="#020411" transform="translate(528,158)"/>
<path d="M0 0 C0.33 0 0.66 0 1 0 C1.33 1.98 1.66 3.96 2 6 C1.01 6.33 0.02 6.66 -1 7 C-1 8.32 -1 9.64 -1 11 C-1.66 11 -2.32 11 -3 11 C-3.33 11.66 -3.66 12.32 -4 13 C-3.27991594 8.39146203 -1.68704061 4.32762591 0 0 Z " fill="#47495B" transform="translate(1137,306)"/>
<path d="M0 0 C0.66 0 1.32 0 2 0 C1.39301257 4.12751449 -0.03810791 7.3321148 -2 11 C-2.33 11 -2.66 11 -3 11 C-3.3227506 6.37390802 -2.84450614 3.71973879 0 0 Z " fill="#050714" transform="translate(1143,295)"/>
<path d="M0 0 C2.8045156 1.4022578 3.0442118 3.06070622 4.1875 5.9375 C4.55230469 6.83339844 4.91710937 7.72929687 5.29296875 8.65234375 C6 11 6 11 5 13 C3.5393715 10.35261084 3 9.10551666 3 6 C2.01 6 1.02 6 0 6 C0 4.02 0 2.04 0 0 Z " fill="#81818A" transform="translate(659,283)"/>
<path d="M0 0 C1.953125 0.7109375 1.953125 0.7109375 4 2 C4.609375 4.1640625 4.609375 4.1640625 4.75 6.625 C4.80671875 7.44226563 4.8634375 8.25953125 4.921875 9.1015625 C4.94765625 9.72804688 4.9734375 10.35453125 5 11 C2.03947516 7.63576723 1.07710178 4.30840713 0 0 Z " fill="#767780" transform="translate(646,252)"/>
<path d="M0 0 C0.99 0.33 1.98 0.66 3 1 C1.68 4.3 0.36 7.6 -1 11 C-1.33 11 -1.66 11 -2 11 C-1.85957123 9.35369672 -1.71250671 7.70795821 -1.5625 6.0625 C-1.48128906 5.14597656 -1.40007812 4.22945312 -1.31640625 3.28515625 C-1 1 -1 1 0 0 Z " fill="#121220" transform="translate(1209,219)"/>
<path d="M0 0 C0.66 0.33 1.32 0.66 2 1 C1.01 1.33 0.02 1.66 -1 2 C-1 2.66 -1 3.32 -1 4 C-4.3171411 5.4216319 -7.44219804 6.39009109 -11 7 C-10.67 6.34 -10.34 5.68 -10 5 C-7.6859378 4.26924352 -5.35171131 3.59861742 -3 3 C-3 2.34 -3 1.68 -3 1 C-2.01 0.67 -1.02 0.34 0 0 Z " fill="#383A4B" transform="translate(457,168)"/>
<path d="M0 0 C0.98120464 3.05263664 0.98120464 4.94736336 0 8 C-0.66 8 -1.32 8 -2 8 C-2 8.99 -2 9.98 -2 11 C-2.66 11 -3.32 11 -4 11 C-3.5247412 9.35303396 -3.04468109 7.70745272 -2.5625 6.0625 C-2.29566406 5.14597656 -2.02882813 4.22945312 -1.75390625 3.28515625 C-1 1 -1 1 0 0 Z " fill="#050612" transform="translate(1200,242)"/>
<path d="M0 0 C1.1092904 3.32787119 1.01557588 4.6993784 0 8 C-0.99 8.66 -1.98 9.32 -3 10 C-2.69201674 8.51988629 -2.378482 7.04092675 -2.0625 5.5625 C-1.88847656 4.73878906 -1.71445312 3.91507813 -1.53515625 3.06640625 C-1 1 -1 1 0 0 Z " fill="#181929" transform="translate(408,220)"/>
<path d="M0 0 C2.05422055 2.05422055 2.68137592 3.33009024 3.6875 6 C3.95949219 6.70125 4.23148438 7.4025 4.51171875 8.125 C5 10 5 10 4 12 C0.46209597 8.30827405 0.40884117 4.90609405 0 0 Z " fill="#6A6C77" transform="translate(698,269)"/>
<path d="M0 0 C0.66 0.33 1.32 0.66 2 1 C0.68 3.64 -0.64 6.28 -2 9 C-2.66 7.68 -3.32 6.36 -4 5 C-2 2 -2 2 0 0 Z " fill="#343640" transform="translate(822,186)"/>
<path d="M0 0 C0.33 0.99 0.66 1.98 1 3 C-0.32 4.32 -1.64 5.64 -3 7 C-3.99 6.67 -4.98 6.34 -6 6 C-4 4 -2 2 0 0 Z " fill="#CBCDCE" transform="translate(1129,422)"/>
<path d="M0 0 C0.66 0 1.32 0 2 0 C1.74337755 1.44010481 1.46909179 2.8770687 1.1875 4.3125 C1.03667969 5.11300781 0.88585937 5.91351563 0.73046875 6.73828125 C-0.07572236 9.23445587 -1.02052002 10.32422106 -3 12 C-2.40075776 7.80530429 -1.42500059 3.99000166 0 0 Z " fill="#ACB0B1" transform="translate(776,299)"/>
<path d="M0 0 C0.33 0.66 0.66 1.32 1 2 C0.22265625 3.7265625 0.22265625 3.7265625 -0.9375 5.625 C-1.618125 6.73875 -2.29875 7.8525 -3 9 C-3.66 8.67 -4.32 8.34 -5 8 C-3.8141763 4.62496331 -2.72426311 2.35277269 0 0 Z " fill="#474A5B" transform="translate(426,191)"/>
<path d="M0 0 C0.33 0 0.66 0 1 0 C1.3125 2.6875 1.3125 2.6875 1 6 C-1.5 8.875 -1.5 8.875 -4 11 C-2.95902388 7.13351728 -1.96301592 3.50538557 0 0 Z " fill="#393D4E" transform="translate(1105,385)"/>
<path d="M0 0 C2.475 0.495 2.475 0.495 5 1 C5 1.66 5 2.32 5 3 C6.65 3.33 8.3 3.66 10 4 C7.45297384 5.27351308 6.5717055 4.80191925 3.875 4.0625 C3.15054687 3.86785156 2.42609375 3.67320312 1.6796875 3.47265625 C1.12539063 3.31667969 0.57109375 3.16070312 0 3 C0 2.01 0 1.02 0 0 Z " fill="#A4A4A8" transform="translate(458,376)"/>
<path d="M0 0 C0.33 0 0.66 0 1 0 C1 1.65 1 3.3 1 5 C0.34 5 -0.32 5 -1 5 C-1.66 6.98 -2.32 8.96 -3 11 C-4.0326802 8.21176345 -4.04509293 7.1322726 -3.0625 4.25 C-2.711875 3.5075 -2.36125 2.765 -2 2 C-1.34 2 -0.68 2 0 2 C0 1.34 0 0.68 0 0 Z " fill="#666A70" transform="translate(761,336)"/>
<path d="M0 0 C0.33 0.99 0.66 1.98 1 3 C1.99 3 2.98 3 4 3 C4 4.32 4 5.64 4 7 C2.68 7 1.36 7 0 7 C0 4.69 0 2.38 0 0 Z " fill="#6B6D7C" transform="translate(1125,328)"/>
<path d="M0 0 C1.13643966 3.40931897 0.86747764 4.00335456 -0.4375 7.1875 C-0.86869141 8.26064453 -0.86869141 8.26064453 -1.30859375 9.35546875 C-1.53675781 9.89816406 -1.76492188 10.44085938 -2 11 C-3.24386556 7.26840331 -2.77811718 4.81984796 -2 1 C-1.34 0.67 -0.68 0.34 0 0 Z " fill="#505259" transform="translate(772,308)"/>
<path d="M0 0 C0.66 0 1.32 0 2 0 C1.4140625 6.15234375 1.4140625 6.15234375 1 8 C0.01 8.495 0.01 8.495 -1 9 C-0.67 6.03 -0.34 3.06 0 0 Z " fill="#5B5E65" transform="translate(1160,347)"/>
<path d="M0 0 C0.66 0 1.32 0 2 0 C1.44271087 3.34373475 0.64826111 6.03312999 -1 9 C-2.60031344 5.79937313 -1.03173691 3.27728194 0 0 Z " fill="#999CA5" transform="translate(751,250)"/>
</svg>
